# xmcd
#
# Track frame offsets: 
#        150
#        15985
#        32682
#        49637
#        66397
#        83847
#        101357
#        116957
#        133495
#        150032
#        165847
#        182330
#        201390
#        221042
#        240497
#        256770
#        273160
#        290567
#        307225
#        325097
#
# Disc length: 4579 seconds
#
# Revision: 1
# Processed by: cddbd v1.5.2PL0 Copyright (c) Steve Scherf et al.
# Submitted via: ExactAudioCopy v0.95b4
#
DISCID=1111e114
DTITLE=Georgia Melodians - 1924-1926
DYEAR=1996
DGENRE=Classic Jazz
TTITLE0=Why Did You Do It?
TTITLE1=I Can't Get the One I Want
TTITLE2=Red Hot Mamma
TTITLE3=Charley, My Boy
TTITLE4=San
TTITLE5=Everybody Loves My Baby
TTITLE6=Doo Wac A Doo (A "Wow-Wow")
TTITLE7=I'm Satisfied (Beside That Sweetie o' Mine)
TTITLE8=I'm Bound for Tennessee
TTITLE9=My Mammy's Blues
TTITLE10=Give Us the Charleston
TTITLE11=Yes Sir, That's My Baby
TTITLE12=She's Drivin' Me Wild
TTITLE13=Red Hot Henry Brown
TTITLE14=Spanish Shawl
TTITLE15=Charleston Ball
TTITLE16=I've Found a New Baby
TTITLE17=Hangin' Around
TTITLE18=Rhythm of the Day
TTITLE19=Ev'rybody's Charleston Crazy
EXTD=Georgia Melodians, approximate roster (at least for the earlier s
EXTD=essions):\n Charles Boulanger: violin, bandleader (or front man]\n
EXTD=Ernie Intelhouse: cornet\n Herb Winfield: trombone\n Clarence Hu
EXTD=tchins: clarinet, alto sax, tenor sax\n Merritt Kenworthy: clarin
EXTD=et, alto sax, baritone sax\n Oscar Young: piano\n Elmer Merry: ba
EXTD=njo, guitar\n Carl Gerold: drums\n Vernon Dalhart (tracks 3,14): 
EXTD=vocals\nRecorded New York US-NY, 1924-07-14/1926-04-09.\nSee <htt
EXTD=p://timelessjazz.com/shop/product_info.php?products_id=277> for d
EXTD=iscography and <http://timelessjazz.com/shop/product_info.php?pro
EXTD=ducts_id=277> for liner notes.\nCompiled by Chris Ellis.\nAudio r
EXTD=estoration: John R.T. Davies\nProdution coordination: Ria Wigt and 
EXTD=Gerard .Biederman\nCD: Timeless CBC 1-031 JAZZ (1996-07-30), EAN 
EXTD=8711458203135.
EXTT0=(Jessell/Reisman/Breau/Tobias)
EXTT1=(Lou Handman/Billy Rose/Herman Ruby)
EXTT2=(Wells/Bud Cooper/Fred Rose)
EXTT3=(Gus Kahn/Ted FioRito)
EXTT4=(McPhail/Michels)
EXTT5=(Jack Palmer/Spencer Williams)
EXTT6=(Gaskill/Walter Donaldson/Horthar)
EXTT7=(Jack Yellen/Maceo Pinkard)
EXTT8=(Little/Gillespie/FioRito)
EXTT9=(J. Spikes/B. Spikes)
EXTT10=(De Sylva/Henderson)
EXTT11=(Gus Kahn/Walter Donaldson)
EXTT12=(Marks/Fields)
EXTT13=(Fred Rose)
EXTT14=(Billy Meyers/Walter Melrose/Elmer Schoebel)
EXTT15=(Donald Heywood)
EXTT16=(Jack Palmer/Spencer Williams)
EXTT17=(Gardner/Harris)
EXTT18=(Murphy/Lindley)
EXTT19=(Holmes)
PLAYORDER=
